<mxfile host="app.diagrams.net" modified="2024-03-07T14:25:47.282Z" agent="Mozilla/5.0 (X11; Linux x86_64; rv:123.0) Gecko/20100101 Firefox/123.0" version="23.1.2" etag="89In24_YUFx-2WEHWJLB" type="github">
  <diagram name="Page-1" id="S_zyDXXzXUIgPJfLsBZ-">
    <mxGraphModel>
      <root>
        <mxCell id="0" />
        <mxCell id="1" parent="0" />
      </root>
    </mxGraphModel>
  </diagram>
</mxfile>
